<?xml version="1.0" encoding="iso-8859-1"?>
<!-- Generator: Adobe Illustrator 23.0.6, SVG Export Plug-In . SVG Version: 6.00 Build 0)  -->
<svg version="1.1" id="Diagram" xmlns="http://www.w3.org/2000/svg" xmlns:xlink="http://www.w3.org/1999/xlink" x="0px" y="0px"
	 width="730px" height="726.651px" viewBox="0 0 730 726.651" style="enable-background:new 0 0 730 726.651;" xml:space="preserve"
	>
<g>
	<g>
		<path style="fill:#FF3369;" d="M131.927,607.471c-0.862,0-1.723-0.331-2.377-0.992c-1.299-1.313-1.288-3.431,0.025-4.73
			l493.588-488.405c1.313-1.3,3.431-1.289,4.73,0.025c1.299,1.313,1.288,3.431-0.025,4.729L134.279,606.504
			C133.627,607.148,132.777,607.471,131.927,607.471z"/>
	</g>
	<g>
		<path d="M724.027,607.697H130.352c-1.108,0-2.007-0.899-2.007-2.007V12.014c0-1.108,0.898-2.007,2.007-2.007
			c1.108,0,2.007,0.898,2.007,2.007v591.67h591.669c1.108,0,2.007,0.899,2.007,2.007S725.135,607.697,724.027,607.697z"/>
	</g>
	<g>
		<path d="M130.352,506.921h-17.59c-1.108,0-2.007-0.899-2.007-2.007c0-1.108,0.898-2.007,2.007-2.007h17.59
			c1.108,0,2.007,0.899,2.007,2.007C132.358,506.022,131.46,506.921,130.352,506.921z"/>
	</g>
	<g>
		<path d="M130.352,407.998h-17.59c-1.108,0-2.007-0.899-2.007-2.007c0-1.108,0.898-2.007,2.007-2.007h17.59
			c1.108,0,2.007,0.899,2.007,2.007C132.358,407.099,131.46,407.998,130.352,407.998z"/>
	</g>
	<g>
		<path d="M130.352,309.076h-17.59c-1.108,0-2.007-0.898-2.007-2.007s0.898-2.007,2.007-2.007h17.59
			c1.108,0,2.007,0.898,2.007,2.007S131.46,309.076,130.352,309.076z"/>
	</g>
	<g>
		<path d="M130.352,210.154h-17.59c-1.108,0-2.007-0.898-2.007-2.007s0.898-2.007,2.007-2.007h17.59
			c1.108,0,2.007,0.898,2.007,2.007S131.46,210.154,130.352,210.154z"/>
	</g>
	<g>
		<path d="M130.352,111.231h-17.59c-1.108,0-2.007-0.898-2.007-2.007c0-1.108,0.898-2.007,2.007-2.007h17.59
			c1.108,0,2.007,0.898,2.007,2.007C132.358,110.333,131.46,111.231,130.352,111.231z"/>
	</g>
	<g>
		<path d="M130.352,12.309h-17.59c-1.108,0-2.007-0.898-2.007-2.007s0.898-2.007,2.007-2.007h17.59c1.108,0,2.007,0.898,2.007,2.007
			S131.46,12.309,130.352,12.309z"/>
	</g>
	<g>
		<path d="M724.004,626.421c-1.108,0-2.007-0.899-2.007-2.007v-17.59c0-1.108,0.899-2.007,2.007-2.007
			c1.108,0,2.007,0.899,2.007,2.007v17.59C726.01,625.522,725.112,626.421,724.004,626.421z"/>
	</g>
	<g>
		<path d="M625.082,626.421c-1.108,0-2.007-0.899-2.007-2.007v-17.59c0-1.108,0.899-2.007,2.007-2.007s2.007,0.899,2.007,2.007
			v17.59C627.088,625.522,626.189,626.421,625.082,626.421z"/>
	</g>
	<g>
		<path d="M526.159,626.421c-1.108,0-2.007-0.899-2.007-2.007v-17.59c0-1.108,0.899-2.007,2.007-2.007s2.007,0.899,2.007,2.007
			v17.59C528.166,625.522,527.267,626.421,526.159,626.421z"/>
	</g>
	<g>
		<path d="M427.237,626.421c-1.108,0-2.007-0.899-2.007-2.007v-17.59c0-1.108,0.899-2.007,2.007-2.007
			c1.108,0,2.007,0.899,2.007,2.007v17.59C429.244,625.522,428.345,626.421,427.237,626.421z"/>
	</g>
	<g>
		<path d="M328.315,626.421c-1.108,0-2.007-0.899-2.007-2.007v-17.59c0-1.108,0.898-2.007,2.007-2.007s2.007,0.899,2.007,2.007
			v17.59C330.321,625.522,329.423,626.421,328.315,626.421z"/>
	</g>
	<g>
		<path d="M229.393,626.421c-1.108,0-2.007-0.899-2.007-2.007v-17.59c0-1.108,0.898-2.007,2.007-2.007
			c1.108,0,2.007,0.899,2.007,2.007v17.59C231.399,625.522,230.501,626.421,229.393,626.421z"/>
	</g>
	<g>
		<path d="M271.782,696.713h4.776l12.441,19.585v-19.585h5.939v29.698h-4.775l-12.401-19.584v19.584h-5.98V696.713z"/>
		<path d="M301.098,724.925c-1.084-1.15-1.626-2.755-1.626-4.815V704.86h5.939v13.484c0,1.151,0.261,1.946,0.783,2.388
			c0.522,0.442,1.304,0.662,2.348,0.662c0.749,0,1.518-0.141,2.307-0.422c0.789-0.281,1.491-0.661,2.107-1.143v-14.97h5.98v21.551
			H314l-1.043-2.208c-2.488,1.633-4.923,2.448-7.304,2.448C303.7,726.651,302.181,726.076,301.098,724.925z"/>
		<path d="M323.43,704.86h4.896l1.043,2.208c1.097-0.83,2.193-1.464,3.291-1.906c1.097-0.442,2.395-0.662,3.893-0.662
			c1.31,0,2.421,0.274,3.331,0.823c0.909,0.549,1.606,1.291,2.087,2.227c1.097-0.83,2.314-1.545,3.652-2.148
			c1.338-0.602,2.635-0.903,3.893-0.903c2.461,0,4.214,0.682,5.257,2.047c1.044,1.364,1.565,3.33,1.565,5.898v13.966h-5.939v-13.444
			c0-1.016-0.275-1.792-0.823-2.328c-0.549-0.534-1.304-0.802-2.267-0.802c-0.777,0-1.572,0.161-2.388,0.481
			c-0.816,0.321-1.559,0.722-2.227,1.204c0.106,0.696,0.161,1.218,0.161,1.565v13.324h-5.939v-13.444
			c0-1.016-0.275-1.792-0.823-2.328c-0.549-0.534-1.304-0.802-2.267-0.802c-1.472,0-2.956,0.536-4.455,1.604v14.97h-5.939V704.86z"
			/>
		<path d="M369.562,726.05c-0.976-0.402-1.919-0.964-2.828-1.687l-0.964,2.047h-4.976v-30.62h5.94v10.554
			c0.935-0.508,1.939-0.937,3.01-1.284c1.069-0.347,2.059-0.521,2.969-0.521c1.846,0,3.323,0.38,4.434,1.143
			c1.11,0.763,1.92,1.966,2.429,3.612c0.508,1.645,0.763,3.833,0.763,6.562c0,3.638-0.602,6.348-1.807,8.126
			c-1.203,1.781-3.049,2.669-5.538,2.669C371.682,726.651,370.539,726.451,369.562,726.05z M373.455,720.391
			c0.628-0.937,0.943-2.541,0.943-4.815c0-1.739-0.161-3.07-0.482-3.994c-0.32-0.924-0.742-1.531-1.263-1.826
			c-0.523-0.294-1.144-0.442-1.867-0.442c-1.31,0-2.662,0.401-4.052,1.204v10.233c1.284,0.696,2.635,1.044,4.052,1.044
			C371.937,721.795,372.827,721.328,373.455,720.391z"/>
		<path d="M387.601,725.648c-1.391-0.641-2.402-1.752-3.031-3.33c-0.628-1.579-0.942-3.799-0.942-6.662
			c0-2.943,0.294-5.21,0.882-6.802c0.589-1.591,1.559-2.709,2.911-3.351c1.349-0.643,3.257-0.963,5.718-0.963
			c2.193,0,3.919,0.214,5.177,0.641c1.257,0.429,2.174,1.178,2.749,2.247c0.576,1.071,0.864,2.583,0.864,4.536
			c0,2.086-0.596,3.572-1.786,4.455c-1.191,0.883-2.924,1.323-5.197,1.323h-5.419c0.054,1.151,0.227,2.041,0.523,2.669
			c0.294,0.63,0.815,1.084,1.565,1.365c0.749,0.281,1.846,0.421,3.291,0.421h6.301v3.492c-1.419,0.295-2.703,0.521-3.852,0.682
			c-1.151,0.161-2.489,0.242-4.013,0.242C390.904,726.612,388.991,726.291,387.601,725.648z M394.343,714.211
			c0.828,0,1.424-0.167,1.786-0.502c0.361-0.334,0.542-0.903,0.542-1.705c0-1.177-0.268-2-0.803-2.469
			c-0.536-0.468-1.445-0.702-2.729-0.702c-0.937,0-1.666,0.154-2.187,0.461c-0.521,0.308-0.903,0.849-1.144,1.625
			c-0.24,0.776-0.361,1.873-0.361,3.291H394.343z"/>
		<path d="M405.82,704.86h4.575l1.365,3.291c0.856-1.123,1.771-1.999,2.749-2.628c0.976-0.628,2.093-0.943,3.351-0.943
			c0.695,0,1.284,0.068,1.766,0.201v6.099c-1.391-0.133-2.235-0.2-2.529-0.2c-1.15,0-2.14,0.187-2.969,0.562
			c-0.83,0.375-1.619,0.963-2.367,1.766v13.403h-5.94V704.86z"/>
		<path d="M436.601,725.588c-1.419-0.682-2.455-1.818-3.11-3.411c-0.656-1.591-0.982-3.792-0.982-6.601
			c0-2.916,0.327-5.171,0.982-6.763c0.656-1.591,1.692-2.702,3.11-3.33c1.417-0.628,3.344-0.943,5.779-0.943
			c2.461,0,4.4,0.328,5.819,0.982c1.417,0.656,2.455,1.779,3.11,3.372c0.655,1.591,0.982,3.819,0.982,6.682
			c0,2.862-0.32,5.09-0.963,6.681c-0.641,1.592-1.672,2.716-3.09,3.372c-1.419,0.656-3.372,0.984-5.859,0.984
			C439.945,726.612,438.019,726.27,436.601,725.588z M444.748,721.454c0.536-0.281,0.937-0.869,1.204-1.766
			c0.266-0.896,0.401-2.267,0.401-4.112c0-1.847-0.135-3.218-0.401-4.114c-0.268-0.896-0.669-1.485-1.204-1.766
			s-1.325-0.421-2.367-0.421c-1.018,0-1.794,0.14-2.328,0.421c-0.536,0.281-0.937,0.87-1.204,1.766
			c-0.268,0.896-0.401,2.267-0.401,4.114c0,1.846,0.133,3.216,0.401,4.112c0.268,0.897,0.669,1.485,1.204,1.766
			c0.534,0.281,1.31,0.422,2.328,0.422C443.423,721.876,444.212,721.735,444.748,721.454z"/>
		<path d="M457.709,709.636h-3.05v-3.812l3.05-0.964v-1.445c0-2.755,0.562-4.755,1.685-5.999c1.123-1.245,2.956-1.867,5.499-1.867
			c1.525,0,3.01,0.201,4.453,0.602v4.254h-3.291c-0.909,0-1.531,0.208-1.865,0.623c-0.334,0.414-0.502,1.103-0.502,2.067v1.765
			h5.458v4.776h-5.458v16.775h-5.979V709.636z"/>
		<path d="M482.451,701.47c-0.148-0.148-0.221-0.342-0.221-0.583v-3.932c0-0.563,0.281-0.844,0.843-0.844h4.575
			c0.24,0,0.427,0.081,0.562,0.242c0.133,0.161,0.201,0.361,0.201,0.602v3.932c0,0.536-0.255,0.802-0.763,0.802h-4.575
			C482.805,701.689,482.597,701.616,482.451,701.47z M482.35,704.86h5.94v21.551h-5.94V704.86z"/>
		<path d="M496.997,725.688c-1.016-0.482-1.752-1.284-2.206-2.408c-0.456-1.123-0.656-2.635-0.602-4.536l0.2-9.109h-3.37v-3.812
			l3.572-0.964l0.802-6.02h4.696v6.02h5.056v4.776h-5.056v9.07c0,1.07,0.187,1.82,0.562,2.247c0.374,0.428,0.896,0.696,1.565,0.802
			l2.729,0.242v4.414h-3.893C499.366,726.411,498.014,726.17,496.997,725.688z"/>
		<path d="M511.806,725.648c-1.391-0.641-2.402-1.752-3.031-3.33c-0.628-1.579-0.942-3.799-0.942-6.662
			c0-2.943,0.294-5.21,0.882-6.802c0.589-1.591,1.559-2.709,2.911-3.351c1.349-0.643,3.257-0.963,5.718-0.963
			c2.193,0,3.919,0.214,5.177,0.641c1.257,0.429,2.174,1.178,2.749,2.247c0.576,1.071,0.864,2.583,0.864,4.536
			c0,2.086-0.596,3.572-1.786,4.455c-1.191,0.883-2.924,1.323-5.197,1.323h-5.419c0.054,1.151,0.227,2.041,0.523,2.669
			c0.294,0.63,0.815,1.084,1.565,1.365c0.749,0.281,1.846,0.421,3.291,0.421h6.301v3.492c-1.419,0.295-2.703,0.521-3.852,0.682
			c-1.151,0.161-2.489,0.242-4.013,0.242C515.11,726.612,513.196,726.291,511.806,725.648z M518.548,714.211
			c0.828,0,1.424-0.167,1.786-0.502c0.361-0.334,0.542-0.903,0.542-1.705c0-1.177-0.268-2-0.803-2.469
			c-0.536-0.468-1.445-0.702-2.729-0.702c-0.937,0-1.666,0.154-2.187,0.461c-0.521,0.308-0.903,0.849-1.144,1.625
			c-0.24,0.776-0.361,1.873-0.361,3.291H518.548z"/>
		<path d="M530.025,704.86h4.896l1.044,2.208c1.096-0.83,2.193-1.464,3.291-1.906c1.096-0.442,2.393-0.662,3.892-0.662
			c1.312,0,2.422,0.274,3.331,0.823c0.909,0.549,1.606,1.291,2.088,2.227c1.096-0.83,2.314-1.545,3.651-2.148
			s2.635-0.903,3.893-0.903c2.461,0,4.214,0.682,5.257,2.047c1.044,1.364,1.565,3.33,1.565,5.898v13.966h-5.939v-13.444
			c0-1.016-0.274-1.792-0.823-2.328c-0.549-0.534-1.304-0.802-2.268-0.802c-0.776,0-1.572,0.161-2.387,0.481
			c-0.816,0.321-1.56,0.722-2.227,1.204c0.106,0.696,0.161,1.218,0.161,1.565v13.324h-5.94v-13.444c0-1.016-0.274-1.792-0.823-2.328
			c-0.549-0.534-1.304-0.802-2.267-0.802c-1.472,0-2.958,0.536-4.455,1.604v14.97h-5.94V704.86z"/>
		<path d="M570.578,726.391c-1.619-0.174-2.856-0.408-3.711-0.703v-3.492h9.551c0.883,0,1.511-0.12,1.886-0.361
			c0.374-0.24,0.562-0.708,0.562-1.404v-0.683c0-0.562-0.18-0.982-0.542-1.263c-0.361-0.281-0.997-0.422-1.906-0.422h-3.37
			c-2.007,0-3.599-0.461-4.776-1.385c-1.178-0.922-1.766-2.414-1.766-4.474v-1.244c0-2.14,0.649-3.726,1.946-4.757
			c1.297-1.029,3.538-1.544,6.723-1.544c1.31,0,2.742,0.101,4.294,0.3c1.551,0.201,2.729,0.435,3.531,0.703v3.491h-9.03
			c-0.83,0-1.432,0.135-1.805,0.402c-0.375,0.268-0.562,0.735-0.562,1.404v0.641c0,0.669,0.2,1.118,0.601,1.344
			c0.402,0.229,1.07,0.342,2.007,0.342h3.451c2.141,0,3.726,0.487,4.756,1.464c1.029,0.977,1.544,2.375,1.544,4.193v1.927
			c0,2.114-0.722,3.606-2.166,4.474c-1.445,0.87-3.64,1.304-6.583,1.304C573.742,726.651,572.197,726.565,570.578,726.391z"/>
	</g>
	<g>
		<path d="M5.939,346.556v8.147H0.602v-22.273h5.338v8.187h24.36v5.939H5.939z"/>
		<path d="M5.357,329.399c-0.147,0.148-0.341,0.221-0.582,0.221H0.843c-0.562,0-0.843-0.281-0.843-0.843v-4.575
			c0-0.241,0.08-0.428,0.24-0.562c0.161-0.134,0.361-0.201,0.602-0.201h3.933c0.536,0,0.803,0.255,0.803,0.763v4.575
			C5.578,329.045,5.505,329.253,5.357,329.399z M8.749,329.5v-5.939h21.551v5.939H8.749z"/>
		<path d="M8.749,318.985v-4.896l2.207-1.043c-0.829-1.097-1.465-2.193-1.906-3.291c-0.442-1.097-0.662-2.395-0.662-3.893
			c0-1.31,0.274-2.421,0.822-3.331c0.549-0.909,1.291-1.606,2.227-2.087c-0.829-1.097-1.545-2.314-2.147-3.652
			c-0.602-1.338-0.903-2.635-0.903-3.893c0-2.461,0.682-4.214,2.046-5.258c1.365-1.043,3.331-1.565,5.9-1.565h13.966v5.939H16.855
			c-1.017,0-1.792,0.275-2.328,0.823c-0.535,0.549-0.803,1.304-0.803,2.267c0,0.777,0.161,1.572,0.482,2.388
			c0.321,0.816,0.722,1.558,1.204,2.227c0.696-0.106,1.218-0.161,1.565-0.161h13.324v5.939H16.855c-1.017,0-1.792,0.275-2.328,0.823
			c-0.535,0.549-0.803,1.304-0.803,2.267c0,1.472,0.536,2.956,1.606,4.455h14.969v5.939H8.749z"/>
		<path d="M29.537,278.292c-0.642,1.392-1.752,2.402-3.331,3.03c-1.578,0.629-3.799,0.943-6.662,0.943
			c-2.943,0-5.21-0.294-6.802-0.883c-1.591-0.588-2.709-1.558-3.351-2.909c-0.642-1.351-0.963-3.257-0.963-5.719
			c0-2.193,0.215-3.919,0.642-5.177c0.428-1.257,1.178-2.173,2.248-2.749c1.071-0.575,2.582-0.863,4.535-0.863
			c2.086,0,3.572,0.596,4.454,1.786c0.883,1.191,1.325,2.924,1.325,5.197v5.418c1.151-0.053,2.041-0.227,2.669-0.521
			c0.629-0.295,1.084-0.816,1.365-1.566c0.281-0.749,0.421-1.846,0.421-3.291v-6.301h3.491c0.295,1.419,0.522,2.703,0.683,3.852
			c0.16,1.151,0.24,2.489,0.24,4.013C30.5,274.988,30.179,276.901,29.537,278.292z M18.099,271.55c0-0.829-0.167-1.425-0.502-1.786
			c-0.334-0.361-0.903-0.541-1.705-0.541c-1.177,0-1.999,0.268-2.468,0.803c-0.468,0.536-0.702,1.445-0.702,2.729
			c0,0.937,0.154,1.665,0.462,2.187c0.308,0.522,0.85,0.903,1.625,1.144c0.777,0.241,1.873,0.361,3.291,0.361V271.55z"/>
	</g>
</g>
<g>
	<path d="M531.01,286.527c-2.268-1.012-3.978-2.932-5.13-5.758c-1.151-2.827-1.728-6.944-1.728-12.353
		c0-5.409,0.584-9.535,1.755-12.38c1.168-2.843,2.887-4.789,5.155-5.836c2.268-1.047,5.287-1.57,9.055-1.57
		c3.803,0,6.83,0.523,9.082,1.57c2.25,1.047,3.951,2.993,5.103,5.836c1.151,2.845,1.728,6.971,1.728,12.38
		c0,5.409-0.576,9.526-1.728,12.353c-1.151,2.826-2.852,4.746-5.103,5.758c-2.252,1.012-5.279,1.518-9.082,1.518
		S533.278,287.539,531.01,286.527z M545.117,280.115c1.133-0.645,1.945-1.866,2.433-3.664c0.488-1.797,0.734-4.475,0.734-8.034
		c0-3.699-0.245-6.446-0.734-8.244c-0.488-1.797-1.3-3.009-2.433-3.638c-1.135-0.628-2.801-0.942-4.999-0.942
		c-2.164,0-3.812,0.314-4.945,0.942c-1.135,0.628-1.963,1.85-2.487,3.664c-0.524,1.815-0.785,4.554-0.785,8.218
		c0,3.594,0.243,6.281,0.732,8.06c0.488,1.779,1.3,2.993,2.434,3.638c1.133,0.646,2.816,0.968,5.05,0.968
		C542.316,281.083,543.982,280.761,545.117,280.115z"/>
	<path d="M563.959,286.554c-1.693-4.45-2.538-9.745-2.538-15.887c0-5.827,0.872-11.009,2.617-15.546
		c1.744-4.536,4.031-8.671,6.856-12.405h6.91c-2.652,4.362-4.755,8.793-6.308,13.295c-1.553,4.502-2.328,9.387-2.328,14.656
		c0,5.339,0.714,10.138,2.146,14.394c1.43,4.257,3.594,8.811,6.49,13.662h-6.91C567.964,295.06,565.651,291.002,563.959,286.554z"/>
	<path d="M581.625,259.623h6.386l1.361,2.879c1.151-0.942,2.529-1.736,4.135-2.382c1.604-0.645,3.174-0.968,4.71-0.968
		c3.176,0,5.426,0.907,6.752,2.722c1.325,1.815,1.988,4.257,1.988,7.328v18.53h-7.747v-17.535c0-1.326-0.358-2.337-1.072-3.036
		c-0.716-0.697-1.702-1.047-2.958-1.047c-1.919,0-3.855,0.698-5.809,2.094v19.524h-7.747V259.623z"/>
	<path d="M616.991,285.376c1.535-4.466,2.303-9.352,2.303-14.656c0-5.339-0.707-10.136-2.12-14.394
		c-1.413-4.257-3.586-8.794-6.517-13.609h6.962c2.966,3.699,5.287,7.756,6.962,12.169c1.674,4.415,2.512,9.692,2.512,15.834
		c0,5.862-0.856,11.053-2.565,15.573c-1.71,4.519-4.014,8.663-6.91,12.431h-6.962C613.344,294.292,615.455,289.842,616.991,285.376z
		"/>
</g>
</svg>
