<?xml version="1.0" encoding="iso-8859-1"?>
<!-- Generator: Adobe Illustrator 23.0.6, SVG Export Plug-In . SVG Version: 6.00 Build 0)  -->
<svg version="1.1" id="Diagram" xmlns="http://www.w3.org/2000/svg" xmlns:xlink="http://www.w3.org/1999/xlink" x="0px" y="0px"
	 width="730px" height="712.083px" viewBox="0 0 730 712.083" style="enable-background:new 0 0 730 712.083;" xml:space="preserve"
	>
<g>
	<path style="fill:#FF3369;" d="M127.97,587.093c3.309-5.678,9.294-14.873,18.975-26.32c14.856-17.567,41.695-44.062,85.186-70.521
		c48.713-29.638,108.037-53.24,176.322-70.153c85.178-21.096,184.658-31.793,295.677-31.793c2.209,0,4,1.791,4,4s-1.791,4-4,4
		c-110.069,0-208.67,10.561-293.062,31.388c-67.434,16.643-125.986,39.837-174.031,68.939
		c-23.56,14.271-57.179,37.791-83.552,68.798c-11.143,13.102-17.284,23.231-19.944,28.085h-5.372L127.97,587.093z"/>
</g>
<g>
	<g>
		<path d="M712.442,595.032H128.266c-1.091,0-1.974-0.884-1.974-1.974V8.881c0-1.091,0.884-1.974,1.974-1.974
			c1.091,0,1.974,0.884,1.974,1.974v582.202h582.202c1.09,0,1.974,0.884,1.974,1.974
			C714.416,594.147,713.532,595.032,712.442,595.032z"/>
	</g>
	<g>
		<path d="M128.266,520.398h-17.309c-1.091,0-1.974-0.884-1.974-1.974c0-1.09,0.884-1.974,1.974-1.974h17.309
			c1.091,0,1.974,0.884,1.974,1.974C130.24,519.513,129.356,520.398,128.266,520.398z"/>
	</g>
	<g>
		<path d="M128.266,447.518h-17.309c-1.091,0-1.974-0.884-1.974-1.974c0-1.09,0.884-1.974,1.974-1.974h17.309
			c1.091,0,1.974,0.884,1.974,1.974C130.24,446.634,129.356,447.518,128.266,447.518z"/>
	</g>
	<g>
		<path d="M128.266,374.639h-17.309c-1.091,0-1.974-0.884-1.974-1.974c0-1.091,0.884-1.974,1.974-1.974h17.309
			c1.091,0,1.974,0.884,1.974,1.974C130.24,373.756,129.356,374.639,128.266,374.639z"/>
	</g>
	<g>
		<path d="M128.266,301.76h-17.309c-1.091,0-1.974-0.884-1.974-1.974c0-1.091,0.884-1.974,1.974-1.974h17.309
			c1.091,0,1.974,0.884,1.974,1.974C130.24,300.876,129.356,301.76,128.266,301.76z"/>
	</g>
	<g>
		<path d="M128.266,228.881h-17.309c-1.091,0-1.974-0.884-1.974-1.974c0-1.091,0.884-1.974,1.974-1.974h17.309
			c1.091,0,1.974,0.884,1.974,1.974C130.24,227.997,129.356,228.881,128.266,228.881z"/>
	</g>
	<g>
		<path d="M128.266,156.002h-17.309c-1.091,0-1.974-0.884-1.974-1.974c0-1.091,0.884-1.974,1.974-1.974h17.309
			c1.091,0,1.974,0.884,1.974,1.974C130.24,155.118,129.356,156.002,128.266,156.002z"/>
	</g>
	<g>
		<path d="M128.266,83.123h-17.309c-1.091,0-1.974-0.884-1.974-1.974s0.884-1.974,1.974-1.974h17.309
			c1.091,0,1.974,0.884,1.974,1.974S129.356,83.123,128.266,83.123z"/>
	</g>
	<g>
		<path d="M128.266,10.244h-17.309c-1.091,0-1.974-0.884-1.974-1.974s0.884-1.974,1.974-1.974h17.309
			c1.091,0,1.974,0.884,1.974,1.974S129.356,10.244,128.266,10.244z"/>
	</g>
	<g>
		<path d="M712.579,613.438c-1.09,0-1.974-0.884-1.974-1.974v-17.309c0-1.09,0.884-1.974,1.974-1.974
			c1.09,0,1.974,0.884,1.974,1.974v17.309C714.554,612.554,713.669,613.438,712.579,613.438z"/>
	</g>
	<g>
		<path d="M653.871,613.438c-1.09,0-1.974-0.884-1.974-1.974v-17.309c0-1.09,0.884-1.974,1.974-1.974s1.974,0.884,1.974,1.974
			v17.309C655.845,612.554,654.961,613.438,653.871,613.438z"/>
	</g>
	<g>
		<path d="M595.427,613.438c-1.09,0-1.974-0.884-1.974-1.974v-17.309c0-1.09,0.884-1.974,1.974-1.974
			c1.09,0,1.974,0.884,1.974,1.974v17.309C597.402,612.554,596.517,613.438,595.427,613.438z"/>
	</g>
	<g>
		<path d="M536.982,613.438c-1.09,0-1.974-0.884-1.974-1.974v-17.309c0-1.09,0.884-1.974,1.974-1.974
			c1.09,0,1.974,0.884,1.974,1.974v17.309C538.957,612.554,538.072,613.438,536.982,613.438z"/>
	</g>
	<g>
		<path d="M478.538,613.438c-1.09,0-1.974-0.884-1.974-1.974v-17.309c0-1.09,0.884-1.974,1.974-1.974s1.974,0.884,1.974,1.974
			v17.309C480.513,612.554,479.629,613.438,478.538,613.438z"/>
	</g>
	<g>
		<path d="M420.093,613.438c-1.09,0-1.974-0.884-1.974-1.974v-17.309c0-1.09,0.884-1.974,1.974-1.974
			c1.09,0,1.974,0.884,1.974,1.974v17.309C422.068,612.554,421.184,613.438,420.093,613.438z"/>
	</g>
	<g>
		<path d="M361.649,613.438c-1.091,0-1.974-0.884-1.974-1.974v-17.309c0-1.09,0.884-1.974,1.974-1.974s1.974,0.884,1.974,1.974
			v17.309C363.624,612.554,362.74,613.438,361.649,613.438z"/>
	</g>
	<g>
		<path d="M303.204,613.438c-1.091,0-1.974-0.884-1.974-1.974v-17.309c0-1.09,0.884-1.974,1.974-1.974
			c1.091,0,1.974,0.884,1.974,1.974v17.309C305.179,612.554,304.295,613.438,303.204,613.438z"/>
	</g>
	<g>
		<path d="M244.76,613.438c-1.091,0-1.974-0.884-1.974-1.974v-17.309c0-1.09,0.884-1.974,1.974-1.974
			c1.091,0,1.974,0.884,1.974,1.974v17.309C246.734,612.554,245.85,613.438,244.76,613.438z"/>
	</g>
	<g>
		<path d="M186.315,613.438c-1.091,0-1.974-0.884-1.974-1.974v-17.309c0-1.09,0.884-1.974,1.974-1.974
			c1.091,0,1.974,0.884,1.974,1.974v17.309C188.29,612.554,187.406,613.438,186.315,613.438z"/>
	</g>
	<g>
		<path d="M267.433,682.624h4.7l12.241,19.272v-19.272h5.844v29.222h-4.699l-12.202-19.27v19.27h-5.884V682.624z"/>
		<path d="M296.28,710.384c-1.066-1.131-1.6-2.711-1.6-4.738V690.64h5.844v13.269c0,1.133,0.257,1.915,0.77,2.35
			c0.514,0.434,1.284,0.652,2.311,0.652c0.737,0,1.494-0.139,2.27-0.415c0.776-0.276,1.467-0.65,2.073-1.125v-14.73h5.884v21.206
			h-4.858l-1.026-2.172c-2.448,1.607-4.844,2.409-7.187,2.409C298.84,712.083,297.346,711.517,296.28,710.384z"/>
		<path d="M318.255,690.64h4.818l1.026,2.172c1.079-0.816,2.158-1.441,3.238-1.875c1.079-0.435,2.356-0.652,3.831-0.652
			c1.289,0,2.383,0.27,3.277,0.81s1.58,1.27,2.054,2.192c1.079-0.816,2.277-1.521,3.594-2.113s2.593-0.888,3.831-0.888
			c2.422,0,4.147,0.671,5.173,2.014c1.027,1.342,1.54,3.277,1.54,5.804v13.743h-5.844v-13.229c0-1-0.271-1.764-0.81-2.291
			c-0.54-0.526-1.284-0.789-2.231-0.789c-0.764,0-1.547,0.158-2.35,0.473c-0.803,0.316-1.534,0.711-2.192,1.185
			c0.105,0.685,0.158,1.198,0.158,1.54v13.11h-5.844v-13.229c0-1-0.271-1.764-0.81-2.291c-0.54-0.526-1.283-0.789-2.231-0.789
			c-1.448,0-2.909,0.527-4.383,1.579v14.73h-5.844V690.64z"/>
		<path d="M363.647,711.491c-0.96-0.396-1.888-0.949-2.783-1.66l-0.949,2.014h-4.896v-30.13h5.845v10.385
			c0.92-0.5,1.908-0.922,2.962-1.264c1.052-0.342,2.026-0.513,2.922-0.513c1.816,0,3.27,0.374,4.363,1.125s1.89,1.935,2.39,3.554
			c0.5,1.618,0.751,3.772,0.751,6.457c0,3.58-0.593,6.246-1.778,7.996c-1.184,1.752-3,2.626-5.449,2.626
			C365.734,712.083,364.609,711.886,363.647,711.491z M367.478,705.923c0.618-0.922,0.928-2.5,0.928-4.738
			c0-1.711-0.158-3.021-0.474-3.93c-0.315-0.909-0.73-1.507-1.243-1.797c-0.514-0.289-1.126-0.434-1.837-0.434
			c-1.289,0-2.62,0.395-3.987,1.185v10.069c1.264,0.685,2.593,1.027,3.987,1.027C365.984,707.304,366.86,706.844,367.478,705.923z"
			/>
		<path d="M381.398,711.095c-1.369-0.631-2.364-1.724-2.982-3.277c-0.618-1.554-0.927-3.738-0.927-6.556
			c0-2.896,0.289-5.126,0.868-6.693c0.58-1.566,1.534-2.666,2.864-3.297c1.328-0.633,3.205-0.947,5.626-0.947
			c2.158,0,3.856,0.211,5.094,0.631c1.237,0.422,2.139,1.159,2.705,2.211c0.567,1.054,0.85,2.541,0.85,4.463
			c0,2.053-0.586,3.514-1.757,4.383c-1.172,0.869-2.877,1.302-5.114,1.302h-5.332c0.053,1.133,0.224,2.008,0.514,2.626
			c0.289,0.62,0.802,1.067,1.54,1.343c0.737,0.276,1.816,0.414,3.238,0.414h6.2v3.436c-1.396,0.291-2.66,0.513-3.791,0.671
			c-1.132,0.158-2.449,0.238-3.949,0.238C384.649,712.044,382.766,711.728,381.398,711.095z M388.033,699.841
			c0.815,0,1.401-0.165,1.757-0.494c0.355-0.329,0.533-0.888,0.533-1.678c0-1.158-0.264-1.968-0.791-2.43
			c-0.527-0.46-1.422-0.69-2.685-0.69c-0.922,0-1.639,0.152-2.152,0.454c-0.513,0.303-0.888,0.836-1.126,1.599
			c-0.237,0.764-0.355,1.843-0.355,3.238H388.033z"/>
		<path d="M399.325,690.64h4.502l1.343,3.238c0.842-1.105,1.743-1.967,2.705-2.586c0.96-0.618,2.059-0.928,3.297-0.928
			c0.684,0,1.264,0.067,1.738,0.198v6.002c-1.369-0.131-2.199-0.197-2.489-0.197c-1.131,0-2.106,0.184-2.922,0.553
			c-0.816,0.369-1.593,0.947-2.329,1.738v13.189h-5.845V690.64z"/>
		<path d="M429.614,711.036c-1.396-0.671-2.415-1.789-3.061-3.356c-0.645-1.566-0.967-3.732-0.967-6.495
			c0-2.869,0.321-5.088,0.967-6.655c0.645-1.566,1.665-2.658,3.061-3.277c1.395-0.618,3.291-0.928,5.687-0.928
			c2.422,0,4.329,0.323,5.725,0.967c1.395,0.645,2.415,1.751,3.061,3.318c0.644,1.566,0.967,3.757,0.967,6.575
			c0,2.816-0.315,5.008-0.947,6.574c-0.631,1.567-1.645,2.672-3.04,3.318c-1.396,0.645-3.318,0.968-5.765,0.968
			C432.904,712.044,431.008,711.707,429.614,711.036z M437.63,706.969c0.527-0.276,0.922-0.855,1.185-1.738
			c0.262-0.882,0.395-2.23,0.395-4.047c0-1.818-0.132-3.166-0.395-4.048c-0.264-0.882-0.658-1.462-1.185-1.738
			c-0.527-0.276-1.303-0.414-2.329-0.414c-1.001,0-1.765,0.138-2.291,0.414c-0.527,0.276-0.922,0.856-1.185,1.738
			s-0.395,2.23-0.395,4.048c0,1.816,0.131,3.165,0.395,4.047c0.264,0.883,0.658,1.462,1.185,1.738
			c0.526,0.276,1.289,0.415,2.291,0.415C436.326,707.384,437.103,707.245,437.63,706.969z"/>
		<path d="M450.385,695.339h-3.002v-3.751l3.002-0.949v-1.422c0-2.711,0.553-4.679,1.658-5.903c1.105-1.225,2.909-1.837,5.411-1.837
			c1.5,0,2.962,0.198,4.382,0.593v4.185h-3.238c-0.895,0-1.507,0.204-1.836,0.613c-0.329,0.408-0.494,1.085-0.494,2.034v1.737h5.371
			v4.7h-5.371v16.507h-5.884V695.339z"/>
		<path d="M474.731,687.304c-0.145-0.145-0.217-0.337-0.217-0.573v-3.869c0-0.554,0.276-0.83,0.829-0.83h4.502
			c0.237,0,0.42,0.08,0.553,0.238c0.131,0.158,0.198,0.355,0.198,0.593v3.869c0,0.527-0.251,0.789-0.751,0.789h-4.502
			C475.079,687.52,474.875,687.448,474.731,687.304z M474.632,690.64h5.845v21.206h-5.845V690.64z"/>
		<path d="M489.045,711.135c-1-0.474-1.724-1.264-2.171-2.369c-0.449-1.106-0.645-2.593-0.593-4.463l0.197-8.964h-3.316v-3.751
			l3.514-0.949l0.789-5.923h4.621v5.923h4.975v4.7h-4.975v8.925c0,1.053,0.184,1.791,0.553,2.211
			c0.368,0.422,0.882,0.685,1.54,0.789l2.685,0.238v4.344h-3.831C491.375,711.846,490.045,711.609,489.045,711.135z"/>
		<path d="M503.617,711.095c-1.369-0.631-2.364-1.724-2.982-3.277c-0.618-1.554-0.927-3.738-0.927-6.556
			c0-2.896,0.289-5.126,0.868-6.693c0.58-1.566,1.534-2.666,2.864-3.297c1.328-0.633,3.205-0.947,5.626-0.947
			c2.158,0,3.856,0.211,5.094,0.631c1.237,0.422,2.139,1.159,2.705,2.211c0.567,1.054,0.85,2.541,0.85,4.463
			c0,2.053-0.586,3.514-1.757,4.383c-1.172,0.869-2.877,1.302-5.114,1.302h-5.332c0.053,1.133,0.224,2.008,0.514,2.626
			c0.289,0.62,0.802,1.067,1.54,1.343c0.737,0.276,1.816,0.414,3.238,0.414h6.2v3.436c-1.396,0.291-2.66,0.513-3.791,0.671
			c-1.132,0.158-2.449,0.238-3.949,0.238C506.868,712.044,504.984,711.728,503.617,711.095z M510.251,699.841
			c0.815,0,1.401-0.165,1.757-0.494c0.355-0.329,0.533-0.888,0.533-1.678c0-1.158-0.263-1.968-0.791-2.43
			c-0.527-0.46-1.422-0.69-2.685-0.69c-0.922,0-1.639,0.152-2.152,0.454c-0.513,0.303-0.888,0.836-1.126,1.599
			c-0.237,0.764-0.355,1.843-0.355,3.238H510.251z"/>
		<path d="M521.544,690.64h4.818l1.027,2.172c1.078-0.816,2.158-1.441,3.238-1.875c1.078-0.435,2.355-0.652,3.829-0.652
			c1.291,0,2.383,0.27,3.278,0.81c0.895,0.54,1.58,1.27,2.054,2.192c1.078-0.816,2.277-1.521,3.593-2.113
			c1.316-0.593,2.593-0.888,3.831-0.888c2.422,0,4.147,0.671,5.173,2.014c1.027,1.342,1.54,3.277,1.54,5.804v13.743h-5.844v-13.229
			c0-1-0.27-1.764-0.81-2.291c-0.54-0.526-1.283-0.789-2.232-0.789c-0.764,0-1.546,0.158-2.349,0.473
			c-0.803,0.316-1.535,0.711-2.192,1.185c0.104,0.685,0.158,1.198,0.158,1.54v13.11h-5.845v-13.229c0-1-0.27-1.764-0.81-2.291
			c-0.54-0.526-1.283-0.789-2.23-0.789c-1.449,0-2.91,0.527-4.383,1.579v14.73h-5.845V690.64z"/>
		<path d="M561.447,711.827c-1.593-0.171-2.81-0.401-3.652-0.692v-3.436h9.398c0.869,0,1.487-0.118,1.856-0.355
			c0.368-0.237,0.553-0.697,0.553-1.382v-0.672c0-0.553-0.177-0.967-0.533-1.243c-0.355-0.276-0.981-0.415-1.875-0.415h-3.317
			c-1.974,0-3.541-0.454-4.7-1.363c-1.159-0.908-1.738-2.376-1.738-4.403v-1.224c0-2.106,0.639-3.666,1.915-4.68
			c1.276-1.013,3.481-1.519,6.615-1.519c1.289,0,2.698,0.099,4.225,0.296c1.526,0.198,2.685,0.428,3.475,0.692v3.435h-8.885
			c-0.816,0-1.409,0.132-1.777,0.396c-0.369,0.264-0.553,0.724-0.553,1.382v0.631c0,0.658,0.197,1.1,0.591,1.323
			c0.396,0.225,1.053,0.337,1.974,0.337h3.396c2.107,0,3.666,0.479,4.68,1.441c1.013,0.962,1.519,2.337,1.519,4.126v1.896
			c0,2.08-0.711,3.548-2.131,4.403c-1.422,0.856-3.581,1.283-6.477,1.283C564.561,712.083,563.04,711.998,561.447,711.827z"/>
	</g>
	<g>
		<path d="M5.844,338.069v8.016H0.592v-21.917h5.252v8.056h23.97v5.844H5.844z"/>
		<path d="M5.272,321.187c-0.145,0.145-0.336,0.217-0.573,0.217h-3.87c-0.553,0-0.829-0.276-0.829-0.829v-4.502
			c0-0.237,0.079-0.421,0.237-0.553c0.158-0.132,0.355-0.198,0.593-0.198h3.87c0.527,0,0.79,0.251,0.79,0.751v4.502
			C5.489,320.839,5.417,321.043,5.272,321.187z M8.609,321.286v-5.844h21.206v5.844H8.609z"/>
		<path d="M8.609,310.94v-4.818l2.172-1.026c-0.816-1.079-1.442-2.158-1.875-3.238c-0.434-1.079-0.652-2.356-0.652-3.831
			c0-1.289,0.27-2.383,0.809-3.277c0.54-0.895,1.271-1.58,2.192-2.054c-0.816-1.079-1.52-2.277-2.113-3.594
			c-0.592-1.316-0.888-2.593-0.888-3.831c0-2.422,0.671-4.146,2.014-5.173c1.343-1.026,3.278-1.54,5.805-1.54h13.742v5.844H16.586
			c-1.001,0-1.764,0.271-2.291,0.81c-0.526,0.54-0.79,1.284-0.79,2.231c0,0.764,0.158,1.547,0.474,2.35
			c0.316,0.803,0.71,1.534,1.185,2.192c0.685-0.105,1.198-0.158,1.54-0.158h13.11v5.844H16.586c-1.001,0-1.764,0.271-2.291,0.81
			c-0.526,0.54-0.79,1.283-0.79,2.231c0,1.448,0.527,2.909,1.58,4.383h14.73v5.844H8.609z"/>
		<path d="M29.064,270.897c-0.632,1.37-1.724,2.363-3.278,2.982c-1.553,0.619-3.738,0.928-6.555,0.928
			c-2.896,0-5.127-0.289-6.693-0.869c-1.566-0.578-2.665-1.533-3.297-2.863c-0.632-1.329-0.948-3.205-0.948-5.627
			c0-2.158,0.211-3.856,0.632-5.094c0.422-1.237,1.159-2.138,2.212-2.705c1.053-0.566,2.541-0.849,4.462-0.849
			c2.053,0,3.514,0.586,4.383,1.757c0.869,1.172,1.303,2.877,1.303,5.114v5.331c1.132-0.052,2.008-0.223,2.626-0.513
			c0.619-0.29,1.066-0.803,1.343-1.541c0.276-0.737,0.415-1.816,0.415-3.238v-6.2h3.435c0.29,1.396,0.514,2.66,0.672,3.791
			c0.157,1.133,0.237,2.449,0.237,3.949C30.012,267.646,29.696,269.529,29.064,270.897z M17.809,264.263
			c0-0.816-0.164-1.402-0.494-1.757c-0.328-0.355-0.888-0.533-1.678-0.533c-1.158,0-1.967,0.264-2.429,0.79
			c-0.46,0.527-0.691,1.422-0.691,2.685c0,0.922,0.152,1.638,0.454,2.152c0.303,0.514,0.836,0.889,1.599,1.125
			c0.764,0.237,1.843,0.355,3.238,0.355V264.263z"/>
	</g>
</g>
<g>
	<path d="M521.234,350.132c-2.268-1.012-3.978-2.931-5.13-5.758c-1.151-2.827-1.728-6.944-1.728-12.353
		c0-5.409,0.584-9.535,1.755-12.38c1.168-2.843,2.887-4.789,5.155-5.836c2.268-1.047,5.287-1.57,9.055-1.57
		c3.803,0,6.83,0.523,9.082,1.57c2.25,1.047,3.951,2.993,5.103,5.836c1.151,2.845,1.728,6.971,1.728,12.38
		c0,5.409-0.576,9.526-1.728,12.353c-1.151,2.826-2.852,4.746-5.103,5.758c-2.252,1.012-5.279,1.518-9.082,1.518
		S523.502,351.144,521.234,350.132z M535.341,343.72c1.133-0.645,1.945-1.866,2.433-3.664c0.488-1.797,0.734-4.475,0.734-8.034
		c0-3.699-0.245-6.446-0.734-8.244c-0.488-1.797-1.3-3.009-2.433-3.638c-1.135-0.628-2.801-0.942-4.999-0.942
		c-2.164,0-3.812,0.314-4.945,0.942c-1.135,0.628-1.963,1.85-2.487,3.664c-0.524,1.815-0.785,4.554-0.785,8.218
		c0,3.594,0.243,6.281,0.732,8.06c0.488,1.779,1.3,2.993,2.434,3.638c1.133,0.646,2.816,0.968,5.05,0.968
		C532.539,344.688,534.206,344.366,535.341,343.72z"/>
	<path d="M554.183,350.159c-1.693-4.45-2.538-9.745-2.538-15.887c0-5.827,0.872-11.009,2.617-15.546
		c1.744-4.536,4.031-8.671,6.856-12.405h6.91c-2.652,4.362-4.755,8.793-6.308,13.295c-1.553,4.502-2.328,9.387-2.328,14.656
		c0,5.339,0.714,10.138,2.146,14.394c1.43,4.257,3.594,8.811,6.49,13.662h-6.91C558.188,358.665,555.875,354.608,554.183,350.159z"
		/>
	<path d="M578.165,349.216c-1.449-1.482-2.172-3.795-2.172-6.935v-30.882h7.747v29.731c0,1.5,0.226,2.574,0.68,3.219
		c0.454,0.646,1.204,1.038,2.252,1.178l2.146,0.314v5.601h-4.031C581.82,351.441,579.612,350.7,578.165,349.216z"/>
	<path d="M596.876,350.264c-1.849-0.891-3.201-2.373-4.056-4.45c-0.856-2.075-1.283-4.946-1.283-8.61
		c0-3.803,0.427-6.743,1.283-8.82c0.855-2.076,2.207-3.524,4.056-4.344c1.849-0.82,4.361-1.23,7.538-1.23
		c3.21,0,5.739,0.427,7.589,1.282c1.849,0.856,3.201,2.321,4.056,4.397c0.855,2.077,1.283,4.981,1.283,8.715
		s-0.419,6.639-1.256,8.715c-0.838,2.077-2.181,3.543-4.031,4.398c-1.85,0.855-4.397,1.282-7.642,1.282
		C601.238,351.598,598.726,351.153,596.876,350.264z M607.502,344.872c0.698-0.367,1.222-1.134,1.571-2.303
		c0.349-1.169,0.524-2.957,0.524-5.365c0-2.408-0.175-4.196-0.524-5.365c-0.349-1.169-0.873-1.937-1.571-2.303
		c-0.698-0.366-1.728-0.549-3.087-0.549c-1.328,0-2.339,0.183-3.036,0.549c-0.699,0.367-1.222,1.135-1.57,2.303
		c-0.349,1.169-0.524,2.957-0.524,5.365c0,2.408,0.175,4.196,0.524,5.365c0.349,1.17,0.872,1.937,1.57,2.303
		c0.698,0.366,1.709,0.549,3.036,0.549C605.774,345.421,606.804,345.238,607.502,344.872z"/>
	<path d="M649.01,327.467l-4.291,0.785c0.628,0.663,1.134,1.431,1.518,2.303c0.383,0.873,0.575,2.059,0.575,3.559
		c0,2.617-0.82,4.703-2.46,6.255c-1.641,1.553-4.206,2.329-7.694,2.329h-4.972c-2.129,0-3.193,0.646-3.193,1.937
		c0,0.558,0.235,0.96,0.707,1.204c0.472,0.245,1.056,0.367,1.753,0.367h7.747c3.351,0,5.88,0.672,7.591,2.015
		c1.709,1.344,2.565,3.481,2.565,6.413v0.785c0,2.827-0.891,5.016-2.67,6.57c-1.78,1.551-4.45,2.328-8.009,2.328h-8.428
		c-2.722,0-4.938-0.593-6.648-1.779c-1.71-1.187-2.565-2.845-2.565-4.974v-0.837c0-1.395,0.383-2.617,1.151-3.664
		c0.768-1.047,1.797-1.867,3.089-2.46c-1.885-1.117-2.827-2.67-2.827-4.659c0-1.395,0.41-2.573,1.231-3.533
		c0.819-0.96,1.963-1.614,3.429-1.963c-1.57-0.838-2.714-1.954-3.429-3.35c-0.716-1.395-1.073-2.966-1.073-4.711
		c0-3.105,0.96-5.409,2.879-6.909c1.918-1.5,4.85-2.251,8.793-2.251h15.231V327.467z M631.79,352.017
		c-1.187,0-2.138,0.279-2.854,0.837s-1.072,1.343-1.072,2.355v0.576c0,1.012,0.34,1.779,1.02,2.303
		c0.681,0.524,1.683,0.785,3.011,0.785h5.338c1.326,0,2.373-0.253,3.141-0.758c0.767-0.507,1.151-1.266,1.151-2.277V355
		c0-0.942-0.34-1.674-1.021-2.198c-0.68-0.523-1.701-0.785-3.062-0.785H631.79z M638.908,335.895
		c0.593-0.663,0.889-1.623,0.889-2.879c0-1.431-0.313-2.451-0.942-3.062c-0.628-0.61-1.588-0.916-2.879-0.916h-2.93
		c-1.361,0-2.365,0.297-3.011,0.89c-0.645,0.594-0.967,1.588-0.967,2.983c0,1.361,0.304,2.365,0.915,3.01
		c0.611,0.646,1.545,0.968,2.801,0.968h2.984C637.267,336.889,638.315,336.558,638.908,335.895z"/>
	<path d="M652.936,323.228h6.386l1.361,2.879c1.151-0.942,2.529-1.736,4.135-2.382c1.604-0.645,3.174-0.968,4.71-0.968
		c3.176,0,5.426,0.907,6.752,2.722c1.325,1.815,1.988,4.257,1.988,7.327v18.53h-7.747v-17.535c0-1.326-0.358-2.337-1.072-3.036
		c-0.716-0.697-1.702-1.047-2.958-1.047c-1.919,0-3.855,0.698-5.809,2.094v19.524h-7.747V323.228z"/>
	<path d="M688.215,348.981c1.535-4.466,2.303-9.352,2.303-14.656c0-5.339-0.707-10.136-2.12-14.394
		c-1.413-4.257-3.586-8.794-6.517-13.609h6.962c2.966,3.699,5.287,7.756,6.962,12.169c1.674,4.415,2.512,9.692,2.512,15.834
		c0,5.862-0.856,11.053-2.565,15.573c-1.71,4.519-4.014,8.663-6.91,12.431h-6.962C684.568,357.897,686.679,353.447,688.215,348.981z
		"/>
</g>
</svg>
